<svg height="825" viewBox="-22.5 30 1104.5 945" width="895" xmlns="http://www.w3.org/2000/svg">
<style>
.species { font: italic 12px serif; fill: orange; }
</style>
<style>
.gene_0 { font: 10px serif; fill:rgb(41, 190, 232); }
</style>
<g transform="translate(  -22.5 855) rotate(-90 0 0 ) ">
<path d="M275.625,108 L275.625,30 L451.6875,30 M305.625,108 L305.625,90 L469.6875,90" fill="none" opacity="0.9" stroke="pink" stroke-width="6"/>
<path d="M161.25,168 L161.25,105 L272.625,105 M191.25,168 L191.25,135 L290.625,135" fill="none" opacity="0.9" stroke="pink" stroke-width="6"/>
<path d="M60,228 L60,165 L158.25,165 M90,228 L90,195 L176.25,195" fill="none" opacity="0.9" stroke="pink" stroke-width="6"/>
<path d="M-22.5,303 L-22.5,225 L57,225 M22.5,303 L22.5,255 L75,255" fill="none" opacity="0.9" stroke="pink" stroke-width="6"/>
<path d="M-22.5,300 L-22.5,345 L22.5,345 L22.5,300" fill="none" opacity="0.9" stroke="pink" stroke-width="6"/>
<text class="species" transform="rotate(90 0,322.5)" x="-15" y="290">
Hsapiens
</text>
<path d="M172.5,303 L172.5,225 L93,225 M127.5,303 L127.5,255 L75,255" fill="none" opacity="0.9" stroke="pink" stroke-width="6"/>
<path d="M127.5,300 L127.5,345 L172.5,345 L172.5,300" fill="none" opacity="0.9" stroke="pink" stroke-width="6"/>
<text class="species" transform="rotate(90 150,322.5)" x="135" y="290">
Bbelcheri
</text>
<path d="M300,303 L300,165 L194.25,165 M255,303 L255,195 L176.25,195" fill="none" opacity="0.9" stroke="pink" stroke-width="6"/>
<path d="M255,300 L255,345 L300,345 L300,300" fill="none" opacity="0.9" stroke="pink" stroke-width="6"/>
<text class="species" transform="rotate(90 277.5,322.5)" x="262.5" y="290">
Aplanci
</text>
<path d="M427.5,303 L427.5,105 L308.625,105 M382.5,303 L382.5,135 L290.625,135" fill="none" opacity="0.9" stroke="pink" stroke-width="6"/>
<path d="M382.5,300 L382.5,345 L427.5,345 L427.5,300" fill="none" opacity="0.9" stroke="pink" stroke-width="6"/>
<text class="species" transform="rotate(90 405,322.5)" x="390" y="290">
Myessoensis
</text>
<path d="M663.75,108 L663.75,30 L487.6875,30 M633.75,108 L633.75,90 L469.6875,90" fill="none" opacity="0.9" stroke="pink" stroke-width="6"/>
<path d="M555,168 L555,105 L630.75,105 M585,168 L585,135 L648.75,135" fill="none" opacity="0.9" stroke="pink" stroke-width="6"/>
<path d="M495,303 L495,165 L552,165 M525,303 L525,195 L570,195" fill="none" opacity="0.9" stroke="pink" stroke-width="6"/>
<path d="M495,300 L495,345 L525,345 L525,300" fill="none" opacity="0.9" stroke="pink" stroke-width="6"/>
<text class="species" transform="rotate(90 510,322.5)" x="495" y="297.5">
Nvectensis
</text>
<path d="M637.5,318 L637.5,165 L588,165 M622.5,318 L622.5,195 L570,195" fill="none" opacity="0.9" stroke="pink" stroke-width="6"/>
<path d="M622.5,315 L622.5,330 L637.5,330 L637.5,315" fill="none" opacity="0.9" stroke="pink" stroke-width="6"/>
<text class="species" transform="rotate(90 630,322.5)" x="615" y="305">
Dgigantea
</text>
<path d="M742.5,310.5 L742.5,105 L666.75,105 M712.5,310.5 L712.5,135 L648.75,135" fill="none" opacity="0.9" stroke="pink" stroke-width="6"/>
<path d="M712.5,307.5 L712.5,337.5 L742.5,337.5 L742.5,307.5" fill="none" opacity="0.9" stroke="pink" stroke-width="6"/>
<text class="species" transform="rotate(90 727.5,322.5)" x="712.5" y="297.5">
Hvulgaris
</text>
<path d="M15,31.5 l-6,-6 l12,0 z" fill="rgb(41, 190, 232)" opacity="0.9" stroke="rgb(41, 190, 232)" stroke-width="1"/>
<path d="M12,34.5 l0,6 l6,0 l0,-6 z" fill="rgb(41, 190, 232)" opacity="0.9" stroke="rgb(41, 190, 232)" stroke-width="3"/>
<path d="M462.1875,52.5 L462.1875,37.5 L15,37.5" fill="none" opacity="0.9" stroke="rgb(41, 190, 232)" stroke-width="3"/>
<path d="M459.1875,49.5 l0,6 l6,0 l0,-6 z" fill="rgb(41, 190, 232)" opacity="0.9" stroke="rgb(41, 190, 232)" stroke-width="3"/>
<path d="M477.1875,67.5 L477.1875,52.5 L462.1875,52.5" fill="none" opacity="0.9" stroke="rgb(41, 190, 232)" stroke-width="3"/>
<circle cx="477.1875" cy="67.5" fill="rgb(41, 190, 232)" opacity="0.9" r="3" stroke="rgb(41, 190, 232)" stroke-width="1"/>
<path d="M656.25,112.5 L656.25,67.5 L477.1875,67.5" fill="none" opacity="0.9" stroke="rgb(41, 190, 232)" stroke-width="3"/>
<circle cx="656.25" cy="112.5" fill="rgb(41, 190, 232)" opacity="0.9" r="3" stroke="rgb(41, 190, 232)" stroke-width="1"/>
<path d="M562.5,172.5 L562.5,112.5 L656.25,112.5" fill="none" opacity="0.9" stroke="rgb(41, 190, 232)" stroke-width="3"/>
<circle cx="562.5" cy="172.5" fill="rgb(41, 190, 232)" opacity="0.9" r="3" stroke="rgb(41, 190, 232)" stroke-width="1"/>
<path d="M502.5,307.5 L502.5,172.5 L562.5,172.5" fill="none" opacity="0.9" stroke="rgb(41, 190, 232)" stroke-width="3"/>
<path d="M499.5,304.5 l0,6 l6,0 l0,-6 z" fill="rgb(41, 190, 232)" opacity="0.9" stroke="rgb(41, 190, 232)" stroke-width="3"/>
<path d="M502.5,345 L502.5,307.5 L502.5,307.5" fill="none" opacity="0.9" stroke="rgb(41, 190, 232)" stroke-width="3"/>
<path d="M502,344.5 l0,1 l1,0 l0,-1 z" fill="red" opacity="0.9" stroke="red" stroke-width="3"/>
<text class="gene_0" transform="rotate(90 497.5,360)" x="497.5" y="360">
Nvectensis.XP_001628366.2
</text>
<path d="M517.5,345 L517.5,307.5 L502.5,307.5" fill="none" opacity="0.9" stroke="rgb(41, 190, 232)" stroke-width="3"/>
<path d="M517,344.5 l0,1 l1,0 l0,-1 z" fill="red" opacity="0.9" stroke="red" stroke-width="3"/>
<text class="gene_0" transform="rotate(90 512.5,360)" x="512.5" y="360">
Nvectensis.XP_001618819.2
</text>
<path d="M630,330 L630,172.5 L562.5,172.5" fill="none" opacity="0.9" stroke="rgb(41, 190, 232)" stroke-width="3"/>
<path d="M629.5,329.5 l0,1 l1,0 l0,-1 z" fill="red" opacity="0.9" stroke="red" stroke-width="3"/>
<text class="gene_0" transform="rotate(90 625,345)" x="625" y="345">
Dgigantea.XP_028393904.1
</text>
<path d="M735,315 L735,112.5 L656.25,112.5" fill="none" opacity="0.9" stroke="rgb(41, 190, 232)" stroke-width="3"/>
<path d="M735,311 l0,8 M731,315 l8,0" fill="rgb(41, 190, 232)" opacity="0.9" stroke="rgb(41, 190, 232)" stroke-width="2" transform="rotate(45 735 315)"/>
<path d="M283.125,112.5 L283.125,67.5 L477.1875,67.5" fill="none" opacity="0.9" stroke="rgb(41, 190, 232)" stroke-width="3"/>
<circle cx="283.125" cy="112.5" fill="rgb(41, 190, 232)" opacity="0.9" r="3" stroke="rgb(41, 190, 232)" stroke-width="1"/>
<path d="M168.75,172.5 L168.75,112.5 L283.125,112.5" fill="none" opacity="0.9" stroke="rgb(41, 190, 232)" stroke-width="3"/>
<circle cx="168.75" cy="172.5" fill="rgb(41, 190, 232)" opacity="0.9" r="3" stroke="rgb(41, 190, 232)" stroke-width="1"/>
<path d="M292.5,345 L292.5,172.5 L168.75,172.5" fill="none" opacity="0.9" stroke="rgb(41, 190, 232)" stroke-width="3"/>
<path d="M292,344.5 l0,1 l1,0 l0,-1 z" fill="red" opacity="0.9" stroke="red" stroke-width="3"/>
<text class="gene_0" transform="rotate(90 287.5,360)" x="287.5" y="360">
Aplanci.XP_022094212.1
</text>
<path d="M67.5,232.5 L67.5,172.5 L168.75,172.5" fill="none" opacity="0.9" stroke="rgb(41, 190, 232)" stroke-width="3"/>
<circle cx="67.5" cy="232.5" fill="rgb(41, 190, 232)" opacity="0.9" r="3" stroke="rgb(41, 190, 232)" stroke-width="1"/>
<path d="M165,345 L165,232.5 L67.5,232.5" fill="none" opacity="0.9" stroke="rgb(41, 190, 232)" stroke-width="3"/>
<path d="M164.5,344.5 l0,1 l1,0 l0,-1 z" fill="red" opacity="0.9" stroke="red" stroke-width="3"/>
<text class="gene_0" transform="rotate(90 160,360)" x="160" y="360">
Bbelcheri.XP_019630032.1
</text>
<path d="M-15,307.5 L-15,232.5 L67.5,232.5" fill="none" opacity="0.9" stroke="rgb(41, 190, 232)" stroke-width="3"/>
<path d="M-15,303.5 l0,8 M-19,307.5 l8,0" fill="rgb(41, 190, 232)" opacity="0.9" stroke="rgb(41, 190, 232)" stroke-width="2" transform="rotate(45 -15 307.5)"/>
<path d="M420,307.5 L420,112.5 L283.125,112.5" fill="none" opacity="0.9" stroke="rgb(41, 190, 232)" stroke-width="3"/>
<path d="M420,303.5 l0,8 M416,307.5 l8,0" fill="rgb(41, 190, 232)" opacity="0.9" stroke="rgb(41, 190, 232)" stroke-width="2" transform="rotate(45 420 307.5)"/>
<path d="M462.1875,82.5 L462.1875,52.5 L462.1875,52.5" fill="none" opacity="0.9" stroke="rgb(41, 190, 232)" stroke-width="3"/>
<circle cx="462.1875" cy="82.5" fill="rgb(41, 190, 232)" opacity="0.9" r="3" stroke="rgb(41, 190, 232)" stroke-width="1"/>
<path d="M298.125,127.5 L298.125,82.5 L462.1875,82.5" fill="none" opacity="0.9" stroke="rgb(41, 190, 232)" stroke-width="3"/>
<circle cx="298.125" cy="127.5" fill="rgb(41, 190, 232)" opacity="0.9" r="3" stroke="rgb(41, 190, 232)" stroke-width="1"/>
<path d="M183.75,187.5 L183.75,127.5 L298.125,127.5" fill="none" opacity="0.9" stroke="rgb(41, 190, 232)" stroke-width="3"/>
<circle cx="183.75" cy="187.5" fill="rgb(41, 190, 232)" opacity="0.9" r="3" stroke="rgb(41, 190, 232)" stroke-width="1"/>
<path d="M82.5,247.5 L82.5,187.5 L183.75,187.5" fill="none" opacity="0.9" stroke="rgb(41, 190, 232)" stroke-width="3"/>
<circle cx="82.5" cy="247.5" fill="rgb(41, 190, 232)" opacity="0.9" r="3" stroke="rgb(41, 190, 232)" stroke-width="1"/>
<path d="M0,345 L0,247.5 L82.5,247.5" fill="none" opacity="0.9" stroke="rgb(41, 190, 232)" stroke-width="3"/>
<path d="M-0.5,344.5 l0,1 l1,0 l0,-1 z" fill="red" opacity="0.9" stroke="red" stroke-width="3"/>
<text class="gene_0" transform="rotate(90 -5,360)" x="-5" y="360">
Hsapiens.NP_006246.2_protein_kinase_C_eta_type
</text>
<path d="M150,322.5 L150,247.5 L82.5,247.5" fill="none" opacity="0.9" stroke="rgb(41, 190, 232)" stroke-width="3"/>
<path d="M150,318.5 l0,8 M146,322.5 l8,0" fill="rgb(41, 190, 232)" opacity="0.9" stroke="rgb(41, 190, 232)" stroke-width="2" transform="rotate(45 150 322.5)"/>
<path d="M277.5,322.5 L277.5,187.5 L183.75,187.5" fill="none" opacity="0.9" stroke="rgb(41, 190, 232)" stroke-width="3"/>
<path d="M277.5,318.5 l0,8 M273.5,322.5 l8,0" fill="rgb(41, 190, 232)" opacity="0.9" stroke="rgb(41, 190, 232)" stroke-width="2" transform="rotate(45 277.5 322.5)"/>
<path d="M405,322.5 L405,127.5 L298.125,127.5" fill="none" opacity="0.9" stroke="rgb(41, 190, 232)" stroke-width="3"/>
<path d="M405,318.5 l0,8 M401,322.5 l8,0" fill="rgb(41, 190, 232)" opacity="0.9" stroke="rgb(41, 190, 232)" stroke-width="2" transform="rotate(45 405 322.5)"/>
<path d="M641.25,127.5 L641.25,82.5 L462.1875,82.5" fill="none" opacity="0.9" stroke="rgb(41, 190, 232)" stroke-width="3"/>
<path d="M641.25,123.5 l0,8 M637.25,127.5 l8,0" fill="rgb(41, 190, 232)" opacity="0.9" stroke="rgb(41, 190, 232)" stroke-width="2" transform="rotate(45 641.25 127.5)"/>
<path d="M15,345 L15,37.5 L15,37.5" fill="none" opacity="0.9" stroke="rgb(41, 190, 232)" stroke-width="3"/>
<path d="M14.5,344.5 l0,1 l1,0 l0,-1 z" fill="red" opacity="0.9" stroke="red" stroke-width="3"/>
<text class="gene_0" transform="rotate(90 10,360)" x="10" y="360">
Hsapiens.NP_006245.2_protein_kinase_C_delta_type_isoform_c
</text>
<path d="M135,337.5 L135,37.5 L15,37.5" fill="none" opacity="0.9" stroke="rgb(41, 190, 232)" stroke-width="3"/>
<path d="M135,333.5 l0,8 M131,337.5 l8,0" fill="rgb(41, 190, 232)" opacity="0.9" stroke="rgb(41, 190, 232)" stroke-width="2" transform="rotate(45 135 337.5)"/>
<path d="M262.5,337.5 L262.5,37.5 L15,37.5" fill="none" opacity="0.9" stroke="rgb(41, 190, 232)" stroke-width="3"/>
<path d="M262.5,333.5 l0,8 M258.5,337.5 l8,0" fill="rgb(41, 190, 232)" opacity="0.9" stroke="rgb(41, 190, 232)" stroke-width="2" transform="rotate(45 262.5 337.5)"/>
<path d="M390,337.5 L390,37.5 L15,37.5" fill="none" opacity="0.9" stroke="rgb(41, 190, 232)" stroke-width="3"/>
<path d="M390,333.5 l0,8 M386,337.5 l8,0" fill="rgb(41, 190, 232)" opacity="0.9" stroke="rgb(41, 190, 232)" stroke-width="2" transform="rotate(45 390 337.5)"/>
<path d="M720,337.5 L720,37.5 L15,37.5" fill="none" opacity="0.9" stroke="rgb(41, 190, 232)" stroke-width="3"/>
<path d="M719.5,337 l0,1 l1,0 l0,-1 z" fill="red" opacity="0.9" stroke="red" stroke-width="3"/>
<text class="gene_0" transform="rotate(90 715,352.5)" x="715" y="352.5">
Hvulgaris.XP_002165000.1
</text>
<path d="M577.5,187.5 L577.5,37.5 L15,37.5" fill="none" opacity="0.9" stroke="rgb(41, 190, 232)" stroke-width="3"/>
<path d="M577.5,183.5 l0,8 M573.5,187.5 l8,0" fill="rgb(41, 190, 232)" opacity="0.9" stroke="rgb(41, 190, 232)" stroke-width="2" transform="rotate(45 577.5 187.5)"/>
</g>
</svg>